<svg xmlns="http://www.w3.org/2000/svg" viewBox="0 0 128 128">
  <rect x="0" y="0" width="128" height="128" fill="#1a1a2e"/>
  <circle cx="16"  cy="16"  r="10" fill="#e94560"/>
  <circle cx="48"  cy="12"  r="14" fill="#e94560"/>
  <circle cx="90"  cy="20"  r="9"  fill="#e94560"/>
  <circle cx="116" cy="10"  r="7"  fill="#e94560"/>
  <circle cx="10"  cy="55"  r="12" fill="#e94560"/>
  <circle cx="42"  cy="50"  r="8"  fill="#e94560"/>
  <circle cx="72"  cy="48"  r="15" fill="#e94560"/>
  <circle cx="108" cy="52"  r="11" fill="#e94560"/>
  <circle cx="25"  cy="90"  r="11" fill="#e94560"/>
  <circle cx="60"  cy="88"  r="13" fill="#e94560"/>
  <circle cx="95"  cy="85"  r="9"  fill="#e94560"/>
  <circle cx="118" cy="95"  r="8"  fill="#e94560"/>
  <circle cx="5"   cy="118" r="9"  fill="#e94560"/>
  <circle cx="38"  cy="115" r="7"  fill="#e94560"/>
  <circle cx="75"  cy="120" r="12" fill="#e94560"/>
  <circle cx="110" cy="118" r="10" fill="#e94560"/>
  <circle cx="20"  cy="12"  r="3"  fill="#ffffff"/>
  <circle cx="52"  cy="8"   r="4"  fill="#ffffff"/>
  <circle cx="76"  cy="44"  r="4"  fill="#ffffff"/>
  <circle cx="28"  cy="85"  r="3"  fill="#ffffff"/>
  <circle cx="64"  cy="84"  r="4"  fill="#ffffff"/>
</svg>
