<svg xmlns="http://www.w3.org/2000/svg" viewBox="0 0 128 128">
  <rect x="0" y="0" width="128" height="128" fill="#111111"/>
  <rect x="0"   y="0"   width="16" height="16" fill="#eeeeee"/>
  <rect x="32"  y="0"   width="16" height="16" fill="#eeeeee"/>
  <rect x="64"  y="0"   width="16" height="16" fill="#eeeeee"/>
  <rect x="96"  y="0"   width="16" height="16" fill="#eeeeee"/>
  <rect x="16"  y="16"  width="16" height="16" fill="#eeeeee"/>
  <rect x="48"  y="16"  width="16" height="16" fill="#eeeeee"/>
  <rect x="80"  y="16"  width="16" height="16" fill="#eeeeee"/>
  <rect x="112" y="16"  width="16" height="16" fill="#eeeeee"/>
  <rect x="0"   y="32"  width="16" height="16" fill="#eeeeee"/>
  <rect x="32"  y="32"  width="16" height="16" fill="#eeeeee"/>
  <rect x="64"  y="32"  width="16" height="16" fill="#eeeeee"/>
  <rect x="96"  y="32"  width="16" height="16" fill="#eeeeee"/>
  <rect x="16"  y="48"  width="16" height="16" fill="#eeeeee"/>
  <rect x="48"  y="48"  width="16" height="16" fill="#eeeeee"/>
  <rect x="80"  y="48"  width="16" height="16" fill="#eeeeee"/>
  <rect x="112" y="48"  width="16" height="16" fill="#eeeeee"/>
  <rect x="0"   y="64"  width="16" height="16" fill="#eeeeee"/>
  <rect x="32"  y="64"  width="16" height="16" fill="#eeeeee"/>
  <rect x="64"  y="64"  width="16" height="16" fill="#eeeeee"/>
  <rect x="96"  y="64"  width="16" height="16" fill="#eeeeee"/>
  <rect x="16"  y="80"  width="16" height="16" fill="#eeeeee"/>
  <rect x="48"  y="80"  width="16" height="16" fill="#eeeeee"/>
  <rect x="80"  y="80"  width="16" height="16" fill="#eeeeee"/>
  <rect x="112" y="80"  width="16" height="16" fill="#eeeeee"/>
  <rect x="0"   y="96"  width="16" height="16" fill="#eeeeee"/>
  <rect x="32"  y="96"  width="16" height="16" fill="#eeeeee"/>
  <rect x="64"  y="96"  width="16" height="16" fill="#eeeeee"/>
  <rect x="96"  y="96"  width="16" height="16" fill="#eeeeee"/>
  <rect x="16"  y="112" width="16" height="16" fill="#eeeeee"/>
  <rect x="48"  y="112" width="16" height="16" fill="#eeeeee"/>
  <rect x="80"  y="112" width="16" height="16" fill="#eeeeee"/>
  <rect x="112" y="112" width="16" height="16" fill="#eeeeee"/>
</svg>
